{
    "asset" : {
        "generator" : "Khronos glTF Blender I/O v1.8.19",
        "version" : "2.0"
    },
    "scene" : 0,
    "scenes" : [
        {
            "name" : "Scene",
            "nodes" : [
                0
            ]
        }
    ],
    "nodes" : [
        {
            "mesh" : 0,
            "name" : "StarSparrow_Core_StarSparrowRed(Unified).001_0.002",
            "rotation" : [
                -0.7004292011260986,
                0,
                0,
                0.7137219309806824
            ],
            "scale" : [
                0.12992718815803528,
                0.12992718815803528,
                0.12992718815803528
            ]
        }
    ],
    "materials" : [
        {
            "doubleSided" : true,
            "emissiveFactor" : [
                1,
                1,
                1
            ],
            "emissiveTexture" : {
                "index" : 0
            },
            "name" : "StarSparrowRedUnified.003",
            "normalTexture" : {
                "index" : 1
            },
            "pbrMetallicRoughness" : {
                "baseColorTexture" : {
                    "index" : 2
                },
                "metallicRoughnessTexture" : {
                    "index" : 3
                }
            }
        }
    ],
    "meshes" : [
        {
            "name" : "StarSparrow_Core_StarSparrowRed(Unified).001_0.005",
            "primitives" : [
                {
                    "attributes" : {
                        "POSITION" : 0,
                        "NORMAL" : 1,
                        "TEXCOORD_0" : 2
                    },
                    "indices" : 3,
                    "material" : 0
                }
            ]
        }
    ],
    "textures" : [
        {
            "sampler" : 0,
            "source" : 0
        },
        {
            "sampler" : 0,
            "source" : 1
        },
        {
            "sampler" : 0,
            "source" : 2
        },
        {
            "sampler" : 0,
            "source" : 3
        }
    ],
    "images" : [
        {
            "mimeType" : "image/png",
            "name" : "StarSparrowRedUnified.001_emissive",
            "uri" : "Textures/StarSparrowRedUnified_001_emissive.png"
        },
        {
            "mimeType" : "image/png",
            "name" : "StarSparrowRedUnified.001_normal",
            "uri" : "Textures/StarSparrowRedUnified_001_normal.png"
        },
        {
            "mimeType" : "image/png",
            "name" : "StarSparrowRedUnified.001_baseColor",
            "uri" : "Textures/StarSparrowRedUnified_001_baseColor.png"
        },
        {
            "mimeType" : "image/png",
            "name" : "StarSparrowRedUnified.001_metallicRoughness",
            "uri" : "Textures/StarSparrowRedUnified_001_metallicRoughness.png"
        }
    ],
    "accessors" : [
        {
            "bufferView" : 0,
            "componentType" : 5126,
            "count" : 2938,
            "max" : [
                6.706353187561035,
                5.907648086547852,
                1.676841139793396
            ],
            "min" : [
                -6.706364154815674,
                -4.892889499664307,
                -1.5495929718017578
            ],
            "type" : "VEC3"
        },
        {
            "bufferView" : 1,
            "componentType" : 5126,
            "count" : 2938,
            "type" : "VEC3"
        },
        {
            "bufferView" : 2,
            "componentType" : 5126,
            "count" : 2938,
            "type" : "VEC2"
        },
        {
            "bufferView" : 3,
            "componentType" : 5123,
            "count" : 5568,
            "type" : "SCALAR"
        }
    ],
    "bufferViews" : [
        {
            "buffer" : 0,
            "byteLength" : 35256,
            "byteOffset" : 0
        },
        {
            "buffer" : 0,
            "byteLength" : 35256,
            "byteOffset" : 35256
        },
        {
            "buffer" : 0,
            "byteLength" : 23504,
            "byteOffset" : 70512
        },
        {
            "buffer" : 0,
            "byteLength" : 11136,
            "byteOffset" : 94016
        }
    ],
    "samplers" : [
        {
            "magFilter" : 9729,
            "minFilter" : 9987
        }
    ],
    "buffers" : [
        {
            "byteLength" : 105152,
            "uri" : "scene.bin"
        }
    ]
}
