{
    "asset" : {
        "generator" : "Khronos glTF Blender I/O v3.2.40",
        "version" : "2.0"
    },
    "scene" : 0,
    "scenes" : [
        {
            "name" : "Scene",
            "nodes" : [
                0
            ]
        }
    ],
    "nodes" : [
        {
            "mesh" : 0,
            "name" : "Ship",
            "rotation" : [
                -1.8644568626768887e-05,
                0.7137218713760376,
                0.7004292607307434,
                1.8998402083525434e-05
            ],
            "scale" : [
                2.000000238418579,
                2.000000238418579,
                2.000000238418579
            ]
        }
    ],
    "materials" : [
        {
            "doubleSided" : true,
            "emissiveFactor" : [
                1,
                1,
                1
            ],
            "emissiveTexture" : {
                "index" : 0
            },
            "name" : "StarSparrowRedUnified.003",
            "normalTexture" : {
                "index" : 1
            },
            "pbrMetallicRoughness" : {
                "baseColorTexture" : {
                    "index" : 2
                },
                "metallicRoughnessTexture" : {
                    "index" : 3
                }
            }
        },
        {
            "doubleSided" : true,
            "name" : "Material.001",
            "pbrMetallicRoughness" : {
                "baseColorFactor" : [
                    0,
                    0.040173593908548355,
                    0.11068835854530334,
                    1
                ],
                "metallicFactor" : 0,
                "roughnessFactor" : 0.5
            }
        },
        {
            "doubleSided" : true,
            "emissiveFactor" : [
                0.6139141321182251,
                0.6139141321182251,
                0.6139141321182251
            ],
            "emissiveTexture" : {
                "index" : 4
            },
            "name" : "default_cockpit",
            "normalTexture" : {
                "index" : 5
            },
            "pbrMetallicRoughness" : {
                "baseColorTexture" : {
                    "index" : 6
                },
                "metallicFactor" : 0.7454545497894287,
                "roughnessFactor" : 0.7227272391319275
            }
        },
        {
            "doubleSided" : true,
            "emissiveFactor" : [
                0.5509485602378845,
                0.5509485602378845,
                0.5509485602378845
            ],
            "emissiveTexture" : {
                "index" : 7
            },
            "name" : "default_cockpit_screen",
            "pbrMetallicRoughness" : {
                "baseColorFactor" : [
                    0.735122799873352,
                    0.735122799873352,
                    0.735122799873352,
                    1
                ],
                "baseColorTexture" : {
                    "index" : 8
                },
                "metallicFactor" : 0,
                "roughnessFactor" : 0.39710482954978943
            }
        },
        {
            "alphaMode" : "BLEND",
            "doubleSided" : true,
            "name" : "default_cockpit_transp",
            "pbrMetallicRoughness" : {
                "baseColorFactor" : [
                    1,
                    1,
                    1,
                    0.35103294253349304
                ],
                "baseColorTexture" : {
                    "index" : 9
                },
                "metallicFactor" : 0,
                "metallicRoughnessTexture" : {
                    "index" : 10
                }
            }
        },
        {
            "doubleSided" : true,
            "name" : "Steel_-_Satin.001",
            "normalTexture" : {
                "index" : 11
            },
            "pbrMetallicRoughness" : {
                "baseColorTexture" : {
                    "index" : 12
                },
                "metallicFactor" : 0.9681817889213562
            }
        }
    ],
    "meshes" : [
        {
            "name" : "StarSparrow_Core_StarSparrowRed(Unified).001_0.005",
            "primitives" : [
                {
                    "attributes" : {
                        "POSITION" : 0,
                        "NORMAL" : 1,
                        "TEXCOORD_0" : 2
                    },
                    "indices" : 3,
                    "material" : 0
                },
                {
                    "attributes" : {
                        "POSITION" : 4,
                        "NORMAL" : 5,
                        "TEXCOORD_0" : 6
                    },
                    "indices" : 7,
                    "material" : 1
                },
                {
                    "attributes" : {
                        "POSITION" : 8,
                        "NORMAL" : 9,
                        "TEXCOORD_0" : 10
                    },
                    "indices" : 11,
                    "material" : 2
                },
                {
                    "attributes" : {
                        "POSITION" : 12,
                        "NORMAL" : 13,
                        "TEXCOORD_0" : 14
                    },
                    "indices" : 15,
                    "material" : 3
                },
                {
                    "attributes" : {
                        "POSITION" : 16,
                        "NORMAL" : 17,
                        "TEXCOORD_0" : 18
                    },
                    "indices" : 19,
                    "material" : 4
                },
                {
                    "attributes" : {
                        "POSITION" : 20,
                        "NORMAL" : 21,
                        "TEXCOORD_0" : 22
                    },
                    "indices" : 23,
                    "material" : 5
                }
            ]
        }
    ],
    "textures" : [
        {
            "sampler" : 0,
            "source" : 0
        },
        {
            "sampler" : 0,
            "source" : 1
        },
        {
            "sampler" : 0,
            "source" : 2
        },
        {
            "sampler" : 0,
            "source" : 3
        },
        {
            "sampler" : 0,
            "source" : 4
        },
        {
            "sampler" : 0,
            "source" : 5
        },
        {
            "sampler" : 0,
            "source" : 6
        },
        {
            "sampler" : 0,
            "source" : 7
        },
        {
            "sampler" : 0,
            "source" : 7
        },
        {
            "sampler" : 0,
            "source" : 6
        },
        {
            "sampler" : 0,
            "source" : 8
        },
        {
            "sampler" : 0,
            "source" : 9
        },
        {
            "sampler" : 0,
            "source" : 10
        }
    ],
    "images" : [
        {
            "mimeType" : "image/png",
            "name" : "StarSparrowRedUnified_001_emissive",
            "uri" : "textures/StarSparrowRedUnified_001_emissive.png"
        },
        {
            "mimeType" : "image/png",
            "name" : "StarSparrowRedUnified_001_normal",
            "uri" : "textures/StarSparrowRedUnified_001_normal.png"
        },
        {
            "mimeType" : "image/png",
            "name" : "StarSparrowRedUnified_001_baseColor",
            "uri" : "textures/StarSparrowRedUnified_001_baseColor.png"
        },
        {
            "mimeType" : "image/png",
            "name" : "StarSparrowRedUnified_001_metallicRoughness",
            "uri" : "textures/StarSparrowRedUnified_001_metallicRoughness.png"
        },
        {
            "mimeType" : "image/png",
            "name" : "default_cockpit_emissive",
            "uri" : "textures/default_cockpit_emissive.png"
        },
        {
            "mimeType" : "image/png",
            "name" : "default_cockpit_normal",
            "uri" : "textures/default_cockpit_normal.png"
        },
        {
            "mimeType" : "image/png",
            "name" : "default_cockpit_baseColor",
            "uri" : "textures/default_cockpit_baseColor.png"
        },
        {
            "mimeType" : "image/png",
            "name" : "default_cockpit_screen_baseColor",
            "uri" : "textures/default_cockpit_screen_baseColor.png"
        },
        {
            "mimeType" : "image/png",
            "name" : "default_cockpit_transp_metallicRoughness",
            "uri" : "textures/default_cockpit_transp_metallicRoughness.png"
        },
        {
            "mimeType" : "image/png",
            "name" : "Image_0",
            "uri" : "textures/Image_0.png"
        },
        {
            "mimeType" : "image/png",
            "name" : "Image_1",
            "uri" : "textures/Image_1.png"
        }
    ],
    "accessors" : [
        {
            "bufferView" : 0,
            "componentType" : 5126,
            "count" : 2937,
            "max" : [
                6.706353187561035,
                5.907648086547852,
                1.676841139793396
            ],
            "min" : [
                -6.706364154815674,
                -4.892889499664307,
                -1.5495998859405518
            ],
            "type" : "VEC3"
        },
        {
            "bufferView" : 1,
            "componentType" : 5126,
            "count" : 2937,
            "type" : "VEC3"
        },
        {
            "bufferView" : 2,
            "componentType" : 5126,
            "count" : 2937,
            "type" : "VEC2"
        },
        {
            "bufferView" : 3,
            "componentType" : 5123,
            "count" : 5466,
            "type" : "SCALAR"
        },
        {
            "bufferView" : 4,
            "componentType" : 5126,
            "count" : 6,
            "max" : [
                0.369637668132782,
                -2.1504006385803223,
                0.40810251235961914
            ],
            "min" : [
                -0.3694034814834595,
                -2.2352185249328613,
                0.31562739610671997
            ],
            "type" : "VEC3"
        },
        {
            "bufferView" : 5,
            "componentType" : 5126,
            "count" : 6,
            "type" : "VEC3"
        },
        {
            "bufferView" : 6,
            "componentType" : 5126,
            "count" : 6,
            "type" : "VEC2"
        },
        {
            "bufferView" : 7,
            "componentType" : 5123,
            "count" : 6,
            "type" : "SCALAR"
        },
        {
            "bufferView" : 8,
            "componentType" : 5126,
            "count" : 97160,
            "max" : [
                0.3824617564678192,
                -1.1341581344604492,
                0.5444134473800659
            ],
            "min" : [
                -0.36631572246551514,
                -2.1024537086486816,
                -0.24667905271053314
            ],
            "type" : "VEC3"
        },
        {
            "bufferView" : 9,
            "componentType" : 5126,
            "count" : 97160,
            "type" : "VEC3"
        },
        {
            "bufferView" : 10,
            "componentType" : 5126,
            "count" : 97160,
            "type" : "VEC2"
        },
        {
            "bufferView" : 11,
            "componentType" : 5125,
            "count" : 190539,
            "type" : "SCALAR"
        },
        {
            "bufferView" : 12,
            "componentType" : 5126,
            "count" : 168,
            "max" : [
                0.316182404756546,
                -1.6928629875183105,
                0.5138200521469116
            ],
            "min" : [
                -0.30634018778800964,
                -1.983270287513733,
                0.2530342638492584
            ],
            "type" : "VEC3"
        },
        {
            "bufferView" : 13,
            "componentType" : 5126,
            "count" : 168,
            "type" : "VEC3"
        },
        {
            "bufferView" : 14,
            "componentType" : 5126,
            "count" : 168,
            "type" : "VEC2"
        },
        {
            "bufferView" : 15,
            "componentType" : 5123,
            "count" : 168,
            "type" : "SCALAR"
        },
        {
            "bufferView" : 16,
            "componentType" : 5126,
            "count" : 1056,
            "max" : [
                0.46949905157089233,
                -0.1638803780078888,
                0.8732215166091919
            ],
            "min" : [
                -0.46934399008750916,
                -2.804123878479004,
                0.27587831020355225
            ],
            "type" : "VEC3"
        },
        {
            "bufferView" : 17,
            "componentType" : 5126,
            "count" : 1056,
            "type" : "VEC3"
        },
        {
            "bufferView" : 18,
            "componentType" : 5126,
            "count" : 1056,
            "type" : "VEC2"
        },
        {
            "bufferView" : 19,
            "componentType" : 5123,
            "count" : 1770,
            "type" : "SCALAR"
        },
        {
            "bufferView" : 20,
            "componentType" : 5126,
            "count" : 722,
            "max" : [
                0.40994155406951904,
                -0.003056645393371582,
                0.44829267263412476
            ],
            "min" : [
                -0.47943413257598877,
                -2.713557243347168,
                -0.3834030330181122
            ],
            "type" : "VEC3"
        },
        {
            "bufferView" : 21,
            "componentType" : 5126,
            "count" : 722,
            "type" : "VEC3"
        },
        {
            "bufferView" : 22,
            "componentType" : 5126,
            "count" : 722,
            "type" : "VEC2"
        },
        {
            "bufferView" : 23,
            "componentType" : 5123,
            "count" : 825,
            "type" : "SCALAR"
        }
    ],
    "bufferViews" : [
        {
            "buffer" : 0,
            "byteLength" : 35244,
            "byteOffset" : 0
        },
        {
            "buffer" : 0,
            "byteLength" : 35244,
            "byteOffset" : 35244
        },
        {
            "buffer" : 0,
            "byteLength" : 23496,
            "byteOffset" : 70488
        },
        {
            "buffer" : 0,
            "byteLength" : 10932,
            "byteOffset" : 93984
        },
        {
            "buffer" : 0,
            "byteLength" : 72,
            "byteOffset" : 104916
        },
        {
            "buffer" : 0,
            "byteLength" : 72,
            "byteOffset" : 104988
        },
        {
            "buffer" : 0,
            "byteLength" : 48,
            "byteOffset" : 105060
        },
        {
            "buffer" : 0,
            "byteLength" : 12,
            "byteOffset" : 105108
        },
        {
            "buffer" : 0,
            "byteLength" : 1165920,
            "byteOffset" : 105120
        },
        {
            "buffer" : 0,
            "byteLength" : 1165920,
            "byteOffset" : 1271040
        },
        {
            "buffer" : 0,
            "byteLength" : 777280,
            "byteOffset" : 2436960
        },
        {
            "buffer" : 0,
            "byteLength" : 762156,
            "byteOffset" : 3214240
        },
        {
            "buffer" : 0,
            "byteLength" : 2016,
            "byteOffset" : 3976396
        },
        {
            "buffer" : 0,
            "byteLength" : 2016,
            "byteOffset" : 3978412
        },
        {
            "buffer" : 0,
            "byteLength" : 1344,
            "byteOffset" : 3980428
        },
        {
            "buffer" : 0,
            "byteLength" : 336,
            "byteOffset" : 3981772
        },
        {
            "buffer" : 0,
            "byteLength" : 12672,
            "byteOffset" : 3982108
        },
        {
            "buffer" : 0,
            "byteLength" : 12672,
            "byteOffset" : 3994780
        },
        {
            "buffer" : 0,
            "byteLength" : 8448,
            "byteOffset" : 4007452
        },
        {
            "buffer" : 0,
            "byteLength" : 3540,
            "byteOffset" : 4015900
        },
        {
            "buffer" : 0,
            "byteLength" : 8664,
            "byteOffset" : 4019440
        },
        {
            "buffer" : 0,
            "byteLength" : 8664,
            "byteOffset" : 4028104
        },
        {
            "buffer" : 0,
            "byteLength" : 5776,
            "byteOffset" : 4036768
        },
        {
            "buffer" : 0,
            "byteLength" : 1650,
            "byteOffset" : 4042544
        }
    ],
    "samplers" : [
        {
            "magFilter" : 9729,
            "minFilter" : 9987
        }
    ],
    "buffers" : [
        {
            "byteLength" : 4044196,
            "uri" : "supership.bin"
        }
    ]
}
