{
    "asset" : {
        "generator" : "Khronos glTF Blender I/O v3.2.40",
        "version" : "2.0"
    },
    "scene" : 0,
    "scenes" : [
        {
            "name" : "Scene",
            "nodes" : [
                5
            ]
        }
    ],
    "nodes" : [
        {
            "mesh" : 0,
            "name" : "Object_13"
        },
        {
            "mesh" : 1,
            "name" : "Object_14"
        },
        {
            "mesh" : 2,
            "name" : "Object_15"
        },
        {
            "mesh" : 3,
            "name" : "Object_16"
        },
        {
            "children" : [
                0,
                1,
                2,
                3
            ],
            "name" : "x_Fallen_Cargo_0007.obj.cleaner.materialmerger.gles"
        },
        {
            "children" : [
                4
            ],
            "name" : "Sketchfab_model",
            "rotation" : [
                -0.7071068286895752,
                0,
                0,
                0.7071067094802856
            ]
        }
    ],
    "materials" : [
        {
            "doubleSided" : true,
            "emissiveFactor" : [
                1,
                1,
                1
            ],
            "emissiveTexture" : {
                "index" : 0
            },
            "name" : "Mat.5",
            "normalTexture" : {
                "index" : 1
            },
            "pbrMetallicRoughness" : {
                "baseColorTexture" : {
                    "index" : 2
                },
                "metallicRoughnessTexture" : {
                    "index" : 3
                }
            }
        }
    ],
    "meshes" : [
        {
            "name" : "Object_11",
            "primitives" : [
                {
                    "attributes" : {
                        "POSITION" : 0,
                        "NORMAL" : 1,
                        "TEXCOORD_0" : 2
                    },
                    "indices" : 3,
                    "material" : 0
                }
            ]
        },
        {
            "name" : "Object_12",
            "primitives" : [
                {
                    "attributes" : {
                        "POSITION" : 4,
                        "NORMAL" : 5,
                        "TEXCOORD_0" : 6
                    },
                    "indices" : 7,
                    "material" : 0
                }
            ]
        },
        {
            "name" : "Object_13",
            "primitives" : [
                {
                    "attributes" : {
                        "POSITION" : 8,
                        "NORMAL" : 9,
                        "TEXCOORD_0" : 10
                    },
                    "indices" : 11,
                    "material" : 0
                }
            ]
        },
        {
            "name" : "Object_14",
            "primitives" : [
                {
                    "attributes" : {
                        "POSITION" : 12,
                        "NORMAL" : 13,
                        "TEXCOORD_0" : 14
                    },
                    "indices" : 15,
                    "material" : 0
                }
            ]
        }
    ],
    "textures" : [
        {
            "sampler" : 0,
            "source" : 0
        },
        {
            "sampler" : 0,
            "source" : 1
        },
        {
            "sampler" : 0,
            "source" : 2
        },
        {
            "sampler" : 0,
            "source" : 3
        }
    ],
    "images" : [
        {
            "mimeType" : "image/jpeg",
            "name" : "Mat_5_emissive",
            "uri" : "textures/Mat_5_emissive.jpg"
        },
        {
            "mimeType" : "image/jpeg",
            "name" : "Mat_5_normal",
            "uri" : "textures/Mat_5_normal.jpg"
        },
        {
            "mimeType" : "image/jpeg",
            "name" : "Mat_5_baseColor",
            "uri" : "textures/Mat_5_baseColor.jpg"
        },
        {
            "mimeType" : "image/png",
            "name" : "Mat_5_metallicRoughness",
            "uri" : "textures/Mat_5_metallicRoughness.png"
        }
    ],
    "accessors" : [
        {
            "bufferView" : 0,
            "componentType" : 5126,
            "count" : 25332,
            "max" : [
                274.69989013671875,
                256.9584655761719,
                30.889331817626953
            ],
            "min" : [
                -263.4671325683594,
                -277.02197265625,
                -50.804290771484375
            ],
            "type" : "VEC3"
        },
        {
            "bufferView" : 1,
            "componentType" : 5126,
            "count" : 25332,
            "type" : "VEC3"
        },
        {
            "bufferView" : 2,
            "componentType" : 5126,
            "count" : 25332,
            "type" : "VEC2"
        },
        {
            "bufferView" : 3,
            "componentType" : 5123,
            "count" : 25446,
            "type" : "SCALAR"
        },
        {
            "bufferView" : 4,
            "componentType" : 5126,
            "count" : 38330,
            "max" : [
                780.6207275390625,
                236.8731689453125,
                44.77963638305664
            ],
            "min" : [
                -262.3084716796875,
                -277.9186706542969,
                -110.3374252319336
            ],
            "type" : "VEC3"
        },
        {
            "bufferView" : 5,
            "componentType" : 5126,
            "count" : 38330,
            "type" : "VEC3"
        },
        {
            "bufferView" : 6,
            "componentType" : 5126,
            "count" : 38330,
            "type" : "VEC2"
        },
        {
            "bufferView" : 7,
            "componentType" : 5123,
            "count" : 38634,
            "type" : "SCALAR"
        },
        {
            "bufferView" : 8,
            "componentType" : 5126,
            "count" : 15726,
            "max" : [
                777.7150268554688,
                283.4306640625,
                68.89827728271484
            ],
            "min" : [
                -260.27001953125,
                -277.9186706542969,
                -27.475635528564453
            ],
            "type" : "VEC3"
        },
        {
            "bufferView" : 9,
            "componentType" : 5126,
            "count" : 15726,
            "type" : "VEC3"
        },
        {
            "bufferView" : 10,
            "componentType" : 5126,
            "count" : 15726,
            "type" : "VEC2"
        },
        {
            "bufferView" : 11,
            "componentType" : 5123,
            "count" : 15858,
            "type" : "SCALAR"
        },
        {
            "bufferView" : 12,
            "componentType" : 5126,
            "count" : 23994,
            "max" : [
                274.69989013671875,
                240.90097045898438,
                30.889331817626953
            ],
            "min" : [
                -262.4895324707031,
                -280.4901428222656,
                -29.204313278198242
            ],
            "type" : "VEC3"
        },
        {
            "bufferView" : 13,
            "componentType" : 5126,
            "count" : 23994,
            "type" : "VEC3"
        },
        {
            "bufferView" : 14,
            "componentType" : 5126,
            "count" : 23994,
            "type" : "VEC2"
        },
        {
            "bufferView" : 15,
            "componentType" : 5123,
            "count" : 24108,
            "type" : "SCALAR"
        }
    ],
    "bufferViews" : [
        {
            "buffer" : 0,
            "byteLength" : 303984,
            "byteOffset" : 0
        },
        {
            "buffer" : 0,
            "byteLength" : 303984,
            "byteOffset" : 303984
        },
        {
            "buffer" : 0,
            "byteLength" : 202656,
            "byteOffset" : 607968
        },
        {
            "buffer" : 0,
            "byteLength" : 50892,
            "byteOffset" : 810624
        },
        {
            "buffer" : 0,
            "byteLength" : 459960,
            "byteOffset" : 861516
        },
        {
            "buffer" : 0,
            "byteLength" : 459960,
            "byteOffset" : 1321476
        },
        {
            "buffer" : 0,
            "byteLength" : 306640,
            "byteOffset" : 1781436
        },
        {
            "buffer" : 0,
            "byteLength" : 77268,
            "byteOffset" : 2088076
        },
        {
            "buffer" : 0,
            "byteLength" : 188712,
            "byteOffset" : 2165344
        },
        {
            "buffer" : 0,
            "byteLength" : 188712,
            "byteOffset" : 2354056
        },
        {
            "buffer" : 0,
            "byteLength" : 125808,
            "byteOffset" : 2542768
        },
        {
            "buffer" : 0,
            "byteLength" : 31716,
            "byteOffset" : 2668576
        },
        {
            "buffer" : 0,
            "byteLength" : 287928,
            "byteOffset" : 2700292
        },
        {
            "buffer" : 0,
            "byteLength" : 287928,
            "byteOffset" : 2988220
        },
        {
            "buffer" : 0,
            "byteLength" : 191952,
            "byteOffset" : 3276148
        },
        {
            "buffer" : 0,
            "byteLength" : 48216,
            "byteOffset" : 3468100
        }
    ],
    "samplers" : [
        {
            "magFilter" : 9729,
            "minFilter" : 9987
        }
    ],
    "buffers" : [
        {
            "byteLength" : 3516316,
            "uri" : "tangledAsteroid.bin"
        }
    ]
}
