{
    "asset" : {
        "generator" : "Khronos glTF Blender I/O v3.2.40",
        "version" : "2.0"
    },
    "scene" : 0,
    "scenes" : [
        {
            "name" : "Scene",
            "nodes" : [
                0
            ]
        }
    ],
    "nodes" : [
        {
            "mesh" : 0,
            "name" : "Object_17",
            "rotation" : [
                0.7477676272392273,
                0,
                0,
                0.6639606356620789
            ]
        }
    ],
    "materials" : [
        {
            "doubleSided" : true,
            "name" : "material_0",
            "pbrMetallicRoughness" : {
                "baseColorFactor" : [
                    0.6592411994934082,
                    0.634049117565155,
                    0.5204560160636902,
                    1
                ],
                "metallicFactor" : 0.10000000149011612,
                "roughnessFactor" : 0.7300000190734863
            }
        }
    ],
    "meshes" : [
        {
            "name" : "Object_14",
            "primitives" : [
                {
                    "attributes" : {
                        "POSITION" : 0,
                        "NORMAL" : 1
                    },
                    "indices" : 2,
                    "material" : 0
                }
            ]
        }
    ],
    "accessors" : [
        {
            "bufferView" : 0,
            "componentType" : 5126,
            "count" : 6622,
            "max" : [
                0.23978179693222046,
                0.1784663200378418,
                0.7702463269233704
            ],
            "min" : [
                -0.09536641836166382,
                -0.21110501885414124,
                -0.983285129070282
            ],
            "type" : "VEC3"
        },
        {
            "bufferView" : 1,
            "componentType" : 5126,
            "count" : 6622,
            "type" : "VEC3"
        },
        {
            "bufferView" : 2,
            "componentType" : 5123,
            "count" : 38880,
            "type" : "SCALAR"
        }
    ],
    "bufferViews" : [
        {
            "buffer" : 0,
            "byteLength" : 79464,
            "byteOffset" : 0
        },
        {
            "buffer" : 0,
            "byteLength" : 79464,
            "byteOffset" : 79464
        },
        {
            "buffer" : 0,
            "byteLength" : 77760,
            "byteOffset" : 158928
        }
    ],
    "buffers" : [
        {
            "byteLength" : 236688,
            "uri" : "skeletonArm_R.bin"
        }
    ]
}
