{
    "asset" : {
        "generator" : "Khronos glTF Blender I/O v3.2.40",
        "version" : "2.0"
    },
    "scene" : 0,
    "scenes" : [
        {
            "name" : "Scene",
            "nodes" : [
                0
            ]
        }
    ],
    "nodes" : [
        {
            "mesh" : 0,
            "name" : "Back_low_B.001_Skeleton_0",
            "rotation" : [
                -0.003041250864043832,
                0.04280121251940727,
                0.9965664148330688,
                0.07081127911806107
            ],
            "scale" : [
                10.000000953674316,
                10.000000953674316,
                10.000000953674316
            ]
        }
    ],
    "materials" : [
        {
            "doubleSided" : true,
            "name" : "Skeleton",
            "normalTexture" : {
                "index" : 0
            },
            "occlusionTexture" : {
                "index" : 1
            },
            "pbrMetallicRoughness" : {
                "baseColorTexture" : {
                    "index" : 2
                },
                "metallicFactor" : 0,
                "metallicRoughnessTexture" : {
                    "index" : 1
                }
            }
        }
    ],
    "meshes" : [
        {
            "name" : "Back_low_B.001_Skeleton_0",
            "primitives" : [
                {
                    "attributes" : {
                        "POSITION" : 0,
                        "NORMAL" : 1,
                        "TEXCOORD_0" : 2
                    },
                    "indices" : 3,
                    "material" : 0
                }
            ]
        }
    ],
    "textures" : [
        {
            "sampler" : 0,
            "source" : 0
        },
        {
            "sampler" : 0,
            "source" : 1
        },
        {
            "sampler" : 0,
            "source" : 2
        }
    ],
    "images" : [
        {
            "mimeType" : "image/png",
            "name" : "Skeleton_normal",
            "uri" : "textures/Skeleton_normal.png"
        },
        {
            "mimeType" : "image/png",
            "name" : "Skeleton_metallicRoughness",
            "uri" : "textures/Skeleton_metallicRoughness.png"
        },
        {
            "mimeType" : "image/png",
            "name" : "Skeleton_baseColor",
            "uri" : "textures/Skeleton_baseColor.png"
        }
    ],
    "accessors" : [
        {
            "bufferView" : 0,
            "componentType" : 5126,
            "count" : 1828,
            "max" : [
                0.09632277488708496,
                0.20873206853866577,
                0.054144397377967834
            ],
            "min" : [
                -0.0663306713104248,
                -0.28166961669921875,
                -0.033636972308158875
            ],
            "type" : "VEC3"
        },
        {
            "bufferView" : 1,
            "componentType" : 5126,
            "count" : 1828,
            "type" : "VEC3"
        },
        {
            "bufferView" : 2,
            "componentType" : 5126,
            "count" : 1828,
            "type" : "VEC2"
        },
        {
            "bufferView" : 3,
            "componentType" : 5123,
            "count" : 8658,
            "type" : "SCALAR"
        }
    ],
    "bufferViews" : [
        {
            "buffer" : 0,
            "byteLength" : 21936,
            "byteOffset" : 0
        },
        {
            "buffer" : 0,
            "byteLength" : 21936,
            "byteOffset" : 21936
        },
        {
            "buffer" : 0,
            "byteLength" : 14624,
            "byteOffset" : 43872
        },
        {
            "buffer" : 0,
            "byteLength" : 17316,
            "byteOffset" : 58496
        }
    ],
    "samplers" : [
        {
            "magFilter" : 9729,
            "minFilter" : 9987
        }
    ],
    "buffers" : [
        {
            "byteLength" : 75812,
            "uri" : "skellyArmUV.bin"
        }
    ]
}
